<svg width="40" height="410" viewBox="0 0 40 410" fill="none" xmlns="http://www.w3.org/2000/svg">
<g clip-path="url(#clip0_1_2)">
<rect width="40" height="410" fill="white"/>
<path d="M31.6859 2.36502C28.4399 2.36502 24.5961 2.59884 21.6411 4.07634C18.1549 5.81948 11.5964 6.90831 11.5964 11.0704C11.5964 18.5296 28.6198 16.6647 26.9611 24.1286C26.186 27.6168 17.3022 30.4648 14.275 31.9783C12.3469 32.9424 7.17796 35.4468 9.7363 38.0052C13.2536 41.5225 19.1745 42.0862 22.6084 45.5201C23.7663 46.6779 30.151 53.4612 29.6025 54.9696C28.4695 58.0853 23.2673 60.3179 20.3391 61.294C16.6469 62.5247 11.8551 65.8398 9.58749 68.9578C8.2585 70.7851 6.93618 74.8488 9.62469 76.3611C13.8028 78.7113 19.7561 81.3835 24.5802 81.3835C29.818 81.3835 28.0867 85.5153 25.3614 87.7451C23.068 89.6215 21.1888 92.3491 18.6277 93.7719C15.802 95.3418 12.5938 96.1033 9.88511 97.827C6.74622 99.8245 6.03452 100.262 6.23925 104.151C6.46287 108.4 14.2456 108.741 17.1024 110.476C20.2891 112.411 33.5464 115.535 30.1978 121.562C28.8144 124.052 24.3717 125.513 22.0132 126.585C20.3706 127.331 18.4928 128.217 16.8048 128.78C16.1086 129.012 15.2608 128.714 14.6098 129.003C13.7228 129.397 13.621 130.674 12.6009 130.9C1.89603 133.279 19.5027 143.478 22.6456 145.298C26.6196 147.598 31.0066 148.882 34.8853 151.324C39.2187 154.053 34.8246 157.485 32.5043 159.063C26.4074 163.209 19.0706 165.714 12.1173 168.289C9.10395 169.405 5.91759 171.663 8.397 175.134C11.8991 180.037 17.3876 182.205 22.9804 184.137C26.6189 185.394 30.2345 186.628 33.9924 187.523C35.5908 187.903 37.056 188.301 37.5639 190.015C38.7101 193.884 37.6061 197.273 33.6948 198.423C30.0648 199.491 26.7079 201.219 22.9804 202.255C20.5701 202.924 12.7381 203.166 12.3033 206.645C10.9189 217.72 23.6865 216.449 30.6814 220.335C35.0118 222.741 26.8475 224.79 24.8406 225.507C20.2566 227.144 15.8311 229.553 11.5964 231.905C10.5426 232.491 10.7669 234.616 10.964 235.7C11.3552 237.852 15.983 239.018 17.6233 239.792C21.5539 241.649 25.8621 242.807 29.6769 244.926C33.2943 246.936 33.4541 248.307 29.9745 250.395C26.4429 252.514 22.1759 252.516 18.6277 254.487C15.7459 256.088 13.5122 256.924 11.2616 259.175C7.00319 263.433 16.461 266.734 19.6322 268.848C23.0549 271.129 28.4453 272.415 31.3138 275.284C34.3415 278.311 29.9822 282.088 27.668 283.245C23.8491 285.155 20.1913 286.444 15.9119 287.3C10.8692 288.309 8.12947 289.924 3.93268 292.323C2.91898 292.902 3.54115 296.822 3.96988 297.68C5.56708 300.874 10.0093 302.436 13.0845 303.707C15.9803 304.903 18.7525 306.403 21.6783 307.427C24.1852 308.304 27.262 308.564 29.3049 310.403C30.6007 311.569 33.0252 312.012 33.0252 313.751C33.0252 315.268 33.355 317.096 32.2067 318.29C28.9315 321.696 24.1972 324.184 19.781 325.656C15.8016 326.983 10.2934 325.115 6.61127 327.219C2.90235 329.338 2.5976 333.554 6.23925 336.184C9.60176 338.613 12.9637 339.986 16.656 341.728C19.4926 343.066 22.2055 344.657 24.9894 345.894C27.3051 346.924 33.7081 350.355 32.988 353.595C32.4338 356.089 22.7189 359.859 20.153 360.775C15.3215 362.501 7.62773 362.884 3.85828 366.653C1.002 369.51 10.4983 376.939 12.2661 378.707C16.5071 382.948 21.9486 384.634 26.8495 387.785C28.8548 389.074 35.1103 390.665 36.2246 392.77C37.3258 394.85 28.7058 397.676 27.1471 398.276C22.5894 400.029 17.4137 401.32 12.9357 403.335C9.42263 404.916 5.73739 407 2.22136 408.172" stroke="#D28D15" stroke-width="3" stroke-linecap="round"/>
</g>
<defs>
<clipPath id="clip0_1_2">
<rect width="40" height="410" fill="white"/>
</clipPath>
</defs>
</svg>
